<?xml version="1.0" encoding="UTF-8"?>
<svg width="28px" height="37px" viewBox="0 0 28 37" version="1.1" xmlns="http://www.w3.org/2000/svg" xmlns:xlink="http://www.w3.org/1999/xlink">
    <!-- Generator: Sketch 49.1 (51147) - http://www.bohemiancoding.com/sketch -->
    <title>Group 19</title>
    <desc>Created with Sketch.</desc>
    <defs>
        <polygon id="path-1" points="0.254837838 0.259189189 10.1672162 0.259189189 10.1672162 10.1293784 0.254837838 10.1293784"></polygon>
    </defs>
    <g id="final-WS" stroke="none" stroke-width="1" fill="none" fill-rule="evenodd">
        <g id="010_Dskt" transform="translate(-535.000000, -563.000000)">
            <g id="Group-19" transform="translate(535.000000, 563.000000)">
                <path d="M21.9329676,10.6742432 C21.9329676,15.0986216 18.3168054,18.7147838 13.892427,18.7147838 C9.46804865,18.7147838 5.85188649,15.0986216 5.85188649,10.6742432 C5.85188649,6.24986486 9.46804865,2.6337027 13.892427,2.6337027 C18.3595622,2.6337027 21.9329676,6.20710811 21.9329676,10.6742432" id="Fill-14" fill="#9C9FA2"></path>
                <path d="M13.8926162,5.73924324 C13.8926162,9.56805405 16.9983459,12.6737838 20.8267784,12.6737838 C20.8695351,8.84497297 17.7638054,5.73924324 13.8926162,5.73924324" id="Fill-19" fill="#9C9FA2"></path>
                <path d="M6.95822703,12.6736703 L6.95822703,13.0565892 C7.97909189,13.822427 9.21298378,14.2477243 10.5743892,14.2477243 C13.9351459,14.2477243 16.6579568,11.5249135 16.6579568,8.16415676 C16.6579568,7.44107568 16.5300649,6.76037297 16.3174162,6.12242703 C15.5515784,5.86702162 14.7857405,5.69675135 13.9351459,5.69675135 C10.0639568,5.73912973 6.95822703,8.84485946 6.95822703,12.6736703" id="Fill-21" fill="#9C9FA2"></path>
                <g id="Group-18" transform="translate(8.702703, 0.119378)">
                    <mask id="mask-2" fill="white">
                        <use xlink:href="#path-1"></use>
                    </mask>
                    <g id="Clip-17"></g>
                    <path d="M10.1672162,5.19456757 C10.1672162,7.91737838 7.95521622,10.1293784 5.23240541,10.1293784 C2.50959459,10.1293784 0.254837838,7.91737838 0.254837838,5.19456757 C0.254837838,2.47175676 2.46721622,0.259756757 5.23240541,0.259756757 C7.95521622,0.217 10.1672162,2.47175676 10.1672162,5.19456757" id="Fill-16" fill="#9C9FA2" mask="url(#mask-2)"></path>
                </g>
                <path d="M0.151275676,36.1998378 L5.17122162,36.1998378 C5.34149189,35.5615135 5.55414054,34.9235676 5.72441081,34.2428649 L5.93705946,36.1998378 L21.8478703,36.1998378 L22.0605189,34.2001081 C22.2735459,34.8811892 22.4438162,35.5615135 22.6137081,36.1998378 L27.6336541,36.1998378 C26.9957081,31.6048108 25.8041946,26.3722162 23.5921946,21.0548649 L17.1684649,21.0548649 L10.6168432,21.0548649 L4.19273514,21.0548649 L4.19273514,21.0972432 C1.98073514,26.3722162 0.7896,31.6048108 0.151275676,36.1998378" id="Fill-23" fill="#00679E"></path>
                <path d="M13.8926162,19.0975892 C17.721427,19.0975892 20.7844,15.9918595 20.7844,12.2058054 C20.7844,8.37699459 17.6786703,5.31402162 13.8926162,5.31402162 C10.0638054,5.31402162 7.00083243,8.41937297 7.00083243,12.2058054 C7.00083243,16.0346162 10.1061838,19.0975892 13.8926162,19.0975892" id="Fill-25" fill="#D8DAD7"></path>
                <path d="M16.5726703,21.5649946 C16.4024,21.3951027 16.3600216,21.0973189 16.5302919,20.9266703 C16.7001838,20.7567784 16.9983459,20.7144 17.1682378,20.8842919 C17.3385081,21.0545622 17.3808865,21.3523459 17.2109946,21.5226162 C17.1258595,21.607373 16.9983459,21.6928865 16.8704541,21.6928865 C16.7429405,21.6928865 16.6578054,21.6501297 16.5726703,21.5649946 M10.6166162,21.607373 C10.4467243,21.4374811 10.4467243,21.1396973 10.659373,20.969427 C10.8296432,20.7995351 11.1270486,20.7995351 11.2973189,21.0121838 C11.4675892,21.1820757 11.4675892,21.4798595 11.2549405,21.6501297 C11.1698054,21.7352649 11.0422919,21.7776432 10.9571568,21.7776432 C10.8296432,21.7352649 10.7017514,21.6928865 10.6166162,21.607373 M15.1261297,22.4159676 C15.041373,22.2033189 15.1261297,21.9051568 15.3391568,21.8204 C15.5518054,21.7352649 15.8495892,21.8204 15.9343459,22.0330486 C16.0198595,22.2456973 15.9343459,22.5434811 15.7216973,22.6289946 C15.6793189,22.671373 15.5941838,22.671373 15.5090486,22.671373 C15.3391568,22.671373 15.2112649,22.5858595 15.1261297,22.4159676 M12.1059135,22.671373 C11.8928865,22.5858595 11.765373,22.2880757 11.8505081,22.0758054 C11.9356432,21.8627784 12.233427,21.7352649 12.4460757,21.8204 C12.6587243,21.9051568 12.7866162,22.2033189 12.7014811,22.4159676 C12.6163459,22.5858595 12.4460757,22.7137514 12.2761838,22.671373 C12.233427,22.7137514 12.1482919,22.671373 12.1059135,22.671373 M13.9349946,23.0542919 C13.6795892,23.0542919 13.4669405,22.8412649 13.4669405,22.5858595 C13.4669405,22.3308324 13.6795892,22.1181838 13.9349946,22.1181838 C14.1904,22.1181838 14.4030486,22.3308324 14.4030486,22.5858595 C14.3606703,22.8412649 14.1904,23.0542919 13.9349946,23.0542919" id="Fill-27" fill="#FFFFFF"></path>
            </g>
        </g>
    </g>
</svg>