<?xml version="1.0" encoding="UTF-8"?>
<svg width="28px" height="35px" viewBox="0 0 28 35" version="1.1" xmlns="http://www.w3.org/2000/svg" xmlns:xlink="http://www.w3.org/1999/xlink">
    <!-- Generator: Sketch 49.1 (51147) - http://www.bohemiancoding.com/sketch -->
    <title>Group 3</title>
    <desc>Created with Sketch.</desc>
    <defs></defs>
    <g id="final-WS" stroke="none" stroke-width="1" fill="none" fill-rule="evenodd">
        <g id="010_Dskt" transform="translate(-335.000000, -560.000000)">
            <g id="Group-3" transform="translate(335.000000, 560.000000)">
                <path d="M22.6684932,34.163989 L28,34.163989 C27.2712329,29.944811 26.0438356,25.2653589 24.0109589,20.5091945 L17.490411,20.5091945 L10.5479452,20.5091945 L3.9890411,20.5091945 L3.9890411,20.5475507 C1.95616438,25.3037151 0.728767123,29.944811 0,34.2027288 L22.6684932,34.2027288 L22.6684932,34.163989 Z" id="Fill-29" fill="#1693D2"></path>
                <path d="M21.5178082,11.3420712 C21.5178082,15.3694685 18.1424658,18.6684822 14,18.6684822 C9.85753425,18.6684822 6.48219178,15.4078247 6.48219178,11.3420712 C6.48219178,7.27631781 9.85753425,4.01604384 14,4.01604384 C18.1424658,4.0544 21.5178082,7.31467397 21.5178082,11.3420712" id="Fill-31" fill="#D8DAD7"></path>
                <path d="M24.7012932,7.8518137 C24.7012932,8.23537534 24.3944438,8.54222466 24.0108822,8.54222466 C23.6273205,8.54222466 23.3204712,8.23537534 23.3204712,7.8518137 C23.3204712,7.46825205 23.6273205,7.16140274 24.0108822,7.16140274 C24.3944438,7.1997589 24.7012932,7.50660822 24.7012932,7.8518137" id="Fill-35" fill="#AECA3A"></path>
                <path d="M24.0109589,7.73663014 C22.5917808,8.88731507 22.5917808,10.6900548 24.0109589,11.8407397 C25.430137,10.728411 25.430137,8.88731507 24.0109589,7.73663014" id="Fill-37" fill="#AECA3A"></path>
                <polygon id="Fill-39" fill="#1693D2" points="0.997260274 1.1010137 27.0410959 1.1010137 27.0410959 0.142109589 0.997260274 0.142109589"></polygon>
                <polygon id="Fill-41" fill="#00679E" points="7.9781589 6.96950685 14.0000767 6.96950685 7.9781589 1.1010137"></polygon>
                <polygon id="Fill-42" fill="#00679E" points="20.0219562 1.10109041 7.97812055 1.10109041 14.0000384 6.96958356 20.0219562 6.96958356"></polygon>
            </g>
        </g>
    </g>
</svg>