<?xml version="1.0" encoding="UTF-8"?>
<svg width="28px" height="34px" viewBox="0 0 28 34" version="1.1" xmlns="http://www.w3.org/2000/svg" xmlns:xlink="http://www.w3.org/1999/xlink">
    <!-- Generator: Sketch 49.1 (51147) - http://www.bohemiancoding.com/sketch -->
    <title>Group 8</title>
    <desc>Created with Sketch.</desc>
    <defs></defs>
    <g id="final-WS" stroke="none" stroke-width="1" fill="none" fill-rule="evenodd">
        <g id="010_Dskt" transform="translate(-434.000000, -559.000000)">
            <g id="Group-8" transform="translate(434.000000, 559.000000)">
                <path d="M14.1135892,0.140264865 L14.1135892,7.32945405 L14.1135892,8.31323784 L14.1135892,24.4699946 L14.1135892,25.1889135 L14.1135892,33.7402649 C27.9622378,27.8375622 27.9622378,15.2754 27.9622378,15.2754 L27.9622378,6.08080541 L14.1135892,0.140264865 Z" id="Fill-43" fill="#A7A8AA"></path>
                <path d="M14.1135892,0.140264865 L14.1135892,7.32945405 L14.1135892,8.31323784 L14.1135892,24.4699946 L14.1135892,25.1889135 L14.1135892,33.7402649 C0.264940541,27.8375622 0.264940541,15.2754 0.264940541,15.2754 L0.264940541,6.08080541 L14.1135892,0.140264865 Z" id="Fill-44" fill="#D9D9D6"></path>
                <path d="M12.9784541,21.215827 L8.77845405,17.015827 L10.3676432,15.4266378 L12.9406162,17.9996108 L14.0757514,16.8644757 L14.0757514,9.06988108 C9.7244,9.06988108 6.16764324,12.6266378 6.16764324,16.9779892 C6.16764324,21.3293405 9.7244,24.8860973 14.1135892,24.8860973 L14.1135892,20.0806919 L12.9784541,21.215827 Z" id="Fill-45" fill="#FFFFFF"></path>
                <path d="M14.1135892,9.07003243 L14.1135892,16.9024649 L17.8216973,13.1943568 L19.4108865,14.7835459 L14.0757514,20.1186811 L14.0757514,24.8862486 C17.6325081,24.8862486 20.6216973,22.5403027 21.6433189,19.3240865 C21.8703459,18.5673297 21.9838595,17.7727351 21.9838595,16.9781405 C22.0216973,12.5889514 18.4649405,9.07003243 14.1135892,9.07003243" id="Fill-46" fill="#F2F2F2"></path>
                <polygon id="Fill-47" fill="#A4CE4E" points="10.4053676 15.4267135 8.77834054 17.0537405 12.9783405 21.2159027 14.1134757 20.0807676 14.1134757 16.9023892 12.9783405 18.0375243"></polygon>
                <polygon id="Fill-48" fill="#A4CE4E" points="19.4108865 14.7833946 17.8216973 13.1942054 14.1135892 16.9023135 14.1135892 20.0806919"></polygon>
            </g>
        </g>
    </g>
</svg>