<?xml version="1.0" encoding="UTF-8"?>
<svg width="28px" height="27px" viewBox="0 0 28 27" version="1.1" xmlns="http://www.w3.org/2000/svg" xmlns:xlink="http://www.w3.org/1999/xlink">
    <!-- Generator: Sketch 49.1 (51147) - http://www.bohemiancoding.com/sketch -->
    <title>Group 17</title>
    <desc>Created with Sketch.</desc>
    <defs></defs>
    <g id="final-WS" stroke="none" stroke-width="1" fill="none" fill-rule="evenodd">
        <g id="010_Dskt" transform="translate(-493.000000, -558.000000)">
            <g id="Group-17" transform="translate(493.000000, 558.000000)">
                <path d="M22.1149676,21.3643784 L13.3789676,21.3643784 L13.3789676,20.0464865 L14.8501027,20.0464865 L14.8501027,14.8044324 L20.6741027,14.8044324 L20.6741027,20.0464865 L22.0843189,20.0464865 L22.0843189,21.3643784 L22.1149676,21.3643784 Z M14.4823189,5.27156757 L2.43588649,16.0920541 L2.43588649,23.9698919 L6.08345405,23.9698919 L6.08345405,14.7737838 L11.9074541,14.7737838 L11.9074541,23.9698919 L24.3220486,23.9698919 L24.3220486,14.1301622 L14.4823189,5.27156757 Z" id="Fill-1" fill="#999DA0"></path>
                <polygon id="Fill-2" fill="#FFFFFF" points="14.8502162 14.7741622 14.8502162 20.0464865 20.6742162 14.7741622"></polygon>
                <polygon id="Fill-3" fill="#565D63" points="24.3218595 4.93447027 20.6742919 4.93447027 20.6742919 6.92701081 24.3218595 10.2067946"></polygon>
                <polygon id="Fill-4" fill="#565D63" points="6.08356757 23.9697027 11.9075676 23.9697027 11.9075676 14.773973 6.08356757 14.773973"></polygon>
                <polygon id="Fill-5" fill="#565D63" points="13.3788162 4.29077297 2.43611351 14.1301243 2.43611351 16.0920162 14.4825459 5.27152973"></polygon>
                <polygon id="Fill-6" fill="#999DA0" points="11.9075676 26.6058649 24.3217838 26.6058649 24.3217838 23.9697027 11.9075676 23.9697027"></polygon>
                <polygon id="Fill-7" fill="#999DA0" points="2.436 26.6058649 6.08356757 26.6058649 6.08356757 23.9697027 2.436 23.9697027"></polygon>
                <polygon id="Fill-8" fill="#565D63" points="6.08356757 26.6058649 11.9079459 26.6058649 11.9079459 23.9697027 6.08356757 23.9697027"></polygon>
                <polygon id="Fill-9" fill="#565D63" points="20.6742541 20.0463351 14.8502541 20.0463351 13.3787405 20.0463351 13.3787405 21.364227 22.1151189 21.364227 22.1151189 20.0463351"></polygon>
                <polygon id="Fill-10" fill="#AECA3A" points="13.3788162 0.36732973 0.0757891892 12.4444108 0.0757891892 16.3678162 13.3788162 4.29073514 14.4825459 5.27149189 26.651573 16.3678162 26.651573 12.4444108 24.3218973 10.2066811 20.6743297 6.9268973"></polygon>
                <polygon id="Fill-11" fill="#F1F2F1" points="20.6742541 14.7741622 14.8502541 20.0464865 20.6742541 20.0464865"></polygon>
                <polygon id="Fill-12" fill="#D7D6D3" points="19.2333514 23.3260811 27.9693514 23.3260811 27.9693514 18.2376486 19.2333514 18.2376486"></polygon>
                <polygon id="Fill-13" fill="#9C9FA2" points="22.8812973 26.6058649 24.3524324 26.6058649 24.3524324 23.3260811 22.8812973 23.3260811"></polygon>
            </g>
        </g>
    </g>
</svg>